<svg xmlns="http://www.w3.org/2000/svg" viewBox="0 0 427.86 63.72">
  <defs>
    <style>.cls-1{fill:#26B696;}.cls-2{fill:#fff;}</style>
  </defs>
  <title>Asset 9</title>
  <g id="Layer_2" data-name="Layer 2">
    <g id="Layer_1-2" data-name="Layer 1">
      <path class="cls-1" d="M285.52,59.3a8.93,8.93,0,0,0,2.57.42c1.11,0,1.57-.2,1.57-.82,0-.46-.24-.71-.93-1L287,57c-.92-.45-1.34-.88-1.34-1.87,0-1.26.81-1.82,2.55-1.82a6,6,0,0,1,2.23.43v1a5.5,5.5,0,0,0-2.26-.45c-1,0-1.45.23-1.45.81,0,.4.26.72.76,1l1.83.83c1,.46,1.44.91,1.44,1.93,0,1.28-.86,1.86-2.72,1.86a7.79,7.79,0,0,1-2.49-.42Z"/>
      <path class="cls-1" d="M295.34,57.71V56.37c0-2,1.05-3,3.17-3s3.14,1,3.14,3v1.34q0,3-3.14,3C296.26,60.73,295.34,59.68,295.34,57.71Zm5.23-1.34c0-1.39-.49-2-2.06-2s-2.09.61-2.09,2v1.34c0,1.38.52,2,2.09,2s2.06-.62,2.06-2Z"/>
      <path class="cls-1" d="M305.75,54.51v-.85l1.21-.17V52.42c0-1.48.81-2.23,2.42-2.23a5,5,0,0,1,1.54.23v1a4.84,4.84,0,0,0-1.5-.23q-1.38,0-1.38,1.14v1.14h2.72v1H308v6.08H307V54.51Z"/>
      <path class="cls-1" d="M314.38,54.51v-.85l1.21-.17.2-1.88h.88v1.88h2.78v1h-2.78v3.66c0,1.11.46,1.52,1.32,1.52a4.57,4.57,0,0,0,1.72-.28v1a4.63,4.63,0,0,1-1.7.29c-1.61,0-2.42-.85-2.42-2.55V54.51Z"/>
      <path class="cls-1" d="M324.94,53.49l.86,5.5c.07.57.29.79.69.79s.62-.22.69-.79l.65-4.11c.16-1,.49-1.39,1.36-1.39s1.18.36,1.35,1.39l.65,4.11c.07.57.29.79.69.79s.62-.26.69-.79l.86-5.5h1.11l-.86,5.43c-.22,1.28-.65,1.81-1.8,1.81s-1.5-.53-1.69-1.81l-.56-3.75c-.07-.62-.17-.76-.44-.76s-.39.17-.47.76l-.56,3.75c-.18,1.28-.62,1.81-1.67,1.81s-1.58-.5-1.8-1.81l-.85-5.43Z"/>
      <path class="cls-1" d="M344.44,58.45c0,1.6-.93,2.28-3,2.28-1.66,0-2.71-.66-2.71-2.16s1-2.1,2.94-2.1h1.69V55.6c0-1-.66-1.31-1.88-1.31a6.45,6.45,0,0,0-2.05.29v-1a6.67,6.67,0,0,1,2-.26c2,0,3,.75,3,2.26Zm-1.08-1.13h-1.68c-1.28,0-1.87.34-1.87,1.25s.53,1.22,1.61,1.22c1.33,0,1.94-.3,1.94-1.38Z"/>
      <path class="cls-1" d="M350.28,60.59H349.2V55.83a2.19,2.19,0,0,1,2.46-2.49,3.42,3.42,0,0,1,.89.12v1a3,3,0,0,0-.89-.12c-1,0-1.38.48-1.38,1.52Z"/>
      <path class="cls-1" d="M362.23,57.45h-4.79v.43c0,1.31.65,1.83,2.25,1.83a6.34,6.34,0,0,0,2.42-.43v1a6.16,6.16,0,0,1-2.42.43c-2.26,0-3.33-.88-3.33-3V56.38q0-3,3-3a2.61,2.61,0,0,1,3,2.88A5.15,5.15,0,0,1,362.23,57.45Zm-4.79-.91h3.89v-.48c0-1.16-.65-1.75-1.95-1.75s-1.94.59-1.94,1.75Z"/>
      <path class="cls-1" d="M366.83,59.3a8.93,8.93,0,0,0,2.57.42c1.11,0,1.57-.2,1.57-.82,0-.46-.24-.71-.93-1L368.28,57c-.92-.45-1.34-.88-1.34-1.87,0-1.26.81-1.82,2.55-1.82a6,6,0,0,1,2.23.43v1a5.5,5.5,0,0,0-2.26-.45c-1,0-1.45.23-1.45.81,0,.4.26.72.76,1l1.83.83c1,.46,1.44.91,1.44,1.93,0,1.28-.86,1.86-2.72,1.86a7.79,7.79,0,0,1-2.49-.42Z"/>
      <path class="cls-1" d="M387.85,56c0,1.67-1,2.5-3,2.5a6.08,6.08,0,0,0-1.53.12.42.42,0,0,0-.34.43c0,.2.11.33.36.4a7.8,7.8,0,0,0,1.51.09,4.78,4.78,0,0,1,2.46.44,1.66,1.66,0,0,1,.69,1.53,1.93,1.93,0,0,1-.7,1.71,4.38,4.38,0,0,1-2.45.49,4.43,4.43,0,0,1-2.49-.49,1.71,1.71,0,0,1-.68-1.51,1.68,1.68,0,0,1,.81-1.54,1,1,0,0,1-.59-1c0-.63.38-1,1.16-1.12a2,2,0,0,1-1.21-2.1v-.18c0-1.57,1.11-2.49,3-2.49a3.62,3.62,0,0,1,1.48.29l1.2-.94.6.58-.94.95a2.09,2.09,0,0,1,.64,1.61Zm-4.39,4.42a1.2,1.2,0,0,0-.68,1.18c0,.93.53,1.18,2.09,1.18s2.07-.25,2.07-1.23-.53-1.06-2.07-1.06A11.7,11.7,0,0,1,383.46,60.43Zm3.29-4.6c0-1-.63-1.52-1.88-1.52s-1.92.5-1.92,1.52V56c0,1,.46,1.55,1.92,1.55s1.88-.52,1.88-1.55Z"/>
      <path class="cls-1" d="M393.6,60.59h-1.08V55.83A2.19,2.19,0,0,1,395,53.34a3.42,3.42,0,0,1,.89.12v1a3,3,0,0,0-.89-.12c-1,0-1.38.48-1.38,1.52Z"/>
      <path class="cls-1" d="M399.68,57.71V56.37q0-3,3.16-3c2.24,0,3.14,1,3.14,3v1.34q0,3-3.14,3C400.6,60.73,399.68,59.68,399.68,57.71Zm5.22-1.34c0-1.39-.49-2-2.06-2s-2.08.61-2.08,2v1.34c0,1.38.51,2,2.08,2s2.06-.62,2.06-2Z"/>
      <path class="cls-1" d="M411.73,53.49V58c0,1.13.48,1.67,1.93,1.67s1.91-.52,1.91-1.67V53.49h1.09V58c0,1.74-.88,2.69-3,2.69s-3-.89-3-2.69V53.49Z"/>
      <path class="cls-1" d="M421.55,63.47V56.35c0-2,1.05-3,3.15-3s3.16,1,3.16,3v1.34c0,2-1,3-3,3a2.3,2.3,0,0,1-2.25-1.07v3.81Zm5.21-7.1c0-1.4-.46-2-2.06-2s-2.07.61-2.07,2v1.34c0,1.38.5,2,2.07,2s2.06-.62,2.06-2Z"/>
      <path class="cls-1" d="M147.32,31.33a3,3,0,1,1,4.19,4.19,3,3,0,0,1-4.19,0A2.94,2.94,0,0,1,147.32,31.33Z"/>
      <path class="cls-1" d="M107.71,26.41A5.84,5.84,0,0,0,106,23.72a7.35,7.35,0,0,0-3.13-1.53,20.47,20.47,0,0,0-4.81-.49H85.47a.87.87,0,0,0-.88.88v3.24a1,1,0,0,0,1,1H97.49a9.05,9.05,0,0,1,2.3.24,3.07,3.07,0,0,1,1.43.76,3,3,0,0,1,.74,1.45,9.58,9.58,0,0,1,.22,2.24v3.79a9.44,9.44,0,0,1-.22,2.25,3,3,0,0,1-.74,1.43,3.17,3.17,0,0,1-1.43.77,9.6,9.6,0,0,1-2.3.23H86.76a9.32,9.32,0,0,1-2.25-.23A3.12,3.12,0,0,1,83.08,39a3,3,0,0,1-.75-1.43,10.05,10.05,0,0,1-.21-2.25V31.06h0V20.25h0V14.08a.94.94,0,0,0-.94-.94H77a.85.85,0,0,0-1,.94v22.4a13.41,13.41,0,0,0,.51,3.94,5.79,5.79,0,0,0,1.69,2.68,7,7,0,0,0,3.1,1.51,21.16,21.16,0,0,0,4.84.47H98.09a21.13,21.13,0,0,0,4.81-.47A7,7,0,0,0,106,43.1a5.86,5.86,0,0,0,1.68-2.68,13.41,13.41,0,0,0,.51-3.94V30.35A13.32,13.32,0,0,0,107.71,26.41Z"/>
      <path class="cls-1" d="M142,25.43a4.6,4.6,0,0,0-1.17-2.17,4.85,4.85,0,0,0-2.26-1.2,15,15,0,0,0-3.6-.36H122.45a20.5,20.5,0,0,0-4.84.49,7.38,7.38,0,0,0-3.11,1.53,5.84,5.84,0,0,0-1.68,2.69,13.32,13.32,0,0,0-.51,3.94v6.13a13.41,13.41,0,0,0,.51,3.94,5.86,5.86,0,0,0,1.68,2.68,7,7,0,0,0,3.11,1.51,21.16,21.16,0,0,0,4.84.47h13.36a.76.76,0,0,0,.76-.77V40.74a.76.76,0,0,0-.76-.77H123c-1.84,0-3.09-.3-3.72-.89a3.82,3.82,0,0,1-1-2.9v-1h0V31.37h0V30.22a2.83,2.83,0,0,1,0-.3h0a3.57,3.57,0,0,1,.94-2.61c.63-.58,1.88-.87,3.72-.87h10.69a2.88,2.88,0,0,1,2,.55,2.61,2.61,0,0,1,.56,1.88v1.78a.73.73,0,0,1-.73.73H121.44a.61.61,0,0,0-.61.61v2.44a.74.74,0,0,0,.73.74h18.3a2.7,2.7,0,0,0,1.83-.53,2.47,2.47,0,0,0,.6-1.9v-4A13.26,13.26,0,0,0,142,25.43Z"/>
      <path class="cls-2" d="M212.78,25.76a4.65,4.65,0,0,0-1.17-2.17,4.79,4.79,0,0,0-2.26-1.19,15,15,0,0,0-3.59-.36H193.28a19.9,19.9,0,0,0-4.83.49,7.1,7.1,0,0,0-3.11,1.53,5.86,5.86,0,0,0-1.68,2.68,13.06,13.06,0,0,0-.52,3.94v6.13a13,13,0,0,0,.52,3.94,5.8,5.8,0,0,0,1.68,2.68A7.09,7.09,0,0,0,188.45,45a21.13,21.13,0,0,0,4.83.46h13.36a.77.77,0,0,0,.77-.76V41.07a.78.78,0,0,0-.77-.77H193.87c-1.84,0-3.08-.29-3.72-.89a3.81,3.81,0,0,1-1-2.9v-1h0V31.7h0V30.55c0-.1,0-.19,0-.3h0a3.58,3.58,0,0,1,.94-2.61c.64-.59,1.88-.88,3.72-.88h10.69a2.89,2.89,0,0,1,2.05.56,2.58,2.58,0,0,1,.55,1.87V31a.72.72,0,0,1-.72.72H192.51a.85.85,0,0,0-.85.85v2.07a.87.87,0,0,0,.88.87h18.15a2.68,2.68,0,0,0,1.84-.53,2.48,2.48,0,0,0,.59-1.89V29A13.32,13.32,0,0,0,212.78,25.76Z"/>
      <path class="cls-2" d="M178.19,22.26A.75.75,0,0,1,179,23v3.5a.76.76,0,0,1-.76.76H167.08a9.17,9.17,0,0,0-2.22.23,3,3,0,0,0-1.4.75,2.87,2.87,0,0,0-.73,1.42,9.82,9.82,0,0,0-.21,2.2V44.28a.92.92,0,0,1-.92.92h-4.09c-.64,0-1-.31-1-.92V30.74a12.9,12.9,0,0,1,.5-3.87,5.65,5.65,0,0,1,1.65-2.63,7.22,7.22,0,0,1,3.05-1.51,20.35,20.35,0,0,1,4.74-.47Z"/>
      <path class="cls-2" d="M244.25,22.26A.74.74,0,0,1,245,23v3.34a.74.74,0,0,1-.75.75H225.41a2.59,2.59,0,0,0-1.8.48,1.83,1.83,0,0,0-.5,1.4v.63a1.72,1.72,0,0,0,.5,1.32,2.59,2.59,0,0,0,1.8.48h14.08c2.34,0,4,.48,5,1.46A5.51,5.51,0,0,1,246,37v2.34a8.13,8.13,0,0,1-.34,2.46,4.24,4.24,0,0,1-1.1,1.84,5.19,5.19,0,0,1-2,1.15,10.56,10.56,0,0,1-3.1.4H211.15a.76.76,0,0,1-.75-.76V41.1a.76.76,0,0,1,.76-.75h26.7a2.77,2.77,0,0,0,1.82-.46,2,2,0,0,0,.52-1.55V37.21a1.66,1.66,0,0,0-.52-1.29,2.77,2.77,0,0,0-1.82-.46h-14q-3.51,0-5-1.44a5.56,5.56,0,0,1-1.5-4.2V28a8,8,0,0,1,.33-2.36,4.21,4.21,0,0,1,1.11-1.82,5.12,5.12,0,0,1,2-1.15,10.47,10.47,0,0,1,3.09-.39Z"/>
      <path class="cls-2" d="M271.92,22.26a20.35,20.35,0,0,1,4.72.47,7.19,7.19,0,0,1,3.07,1.51,5.74,5.74,0,0,1,1.66,2.63,13.23,13.23,0,0,1,.5,3.87v6a13.2,13.2,0,0,1-.5,3.86,5.74,5.74,0,0,1-1.66,2.63,6.85,6.85,0,0,1-3.07,1.49,21,21,0,0,1-4.72.46H260.1a21,21,0,0,1-4.75-.46,7,7,0,0,1-3-1.49,5.81,5.81,0,0,1-1.65-2.63,13.2,13.2,0,0,1-.5-3.86v-6a13.23,13.23,0,0,1,.5-3.87,5.81,5.81,0,0,1,1.65-2.63,7.34,7.34,0,0,1,3-1.51,20.39,20.39,0,0,1,4.75-.47ZM256.13,35.71a9.83,9.83,0,0,0,.21,2.22,2.73,2.73,0,0,0,.73,1.39,3,3,0,0,0,1.4.76,9,9,0,0,0,2.21.23h10.66a9.21,9.21,0,0,0,2.25-.23,3,3,0,0,0,1.4-.76,2.82,2.82,0,0,0,.74-1.39,9.89,9.89,0,0,0,.2-2.22v-4a9.54,9.54,0,0,0-.2-2.17,3,3,0,0,0-.74-1.42,2.64,2.64,0,0,0-1.4-.75,9.87,9.87,0,0,0-2.25-.21H260.68a9.67,9.67,0,0,0-2.21.21,2.64,2.64,0,0,0-1.4.75,2.87,2.87,0,0,0-.73,1.42,9.48,9.48,0,0,0-.21,2.17Z"/>
      <path class="cls-2" d="M291,13.86a.92.92,0,0,1,.92.92v29.5a.93.93,0,0,1-.92.92h-4.1a.93.93,0,0,1-.92-.93V14.78a.92.92,0,0,1,.92-.92Z"/>
      <path class="cls-2" d="M301.19,22.26c.61,0,.92.31.92,1V35.29a12.37,12.37,0,0,0,.17,2.22,3,3,0,0,0,.62,1.4,2.64,2.64,0,0,0,1.3.75,8.8,8.8,0,0,0,2.21.23h10.74a9.3,9.3,0,0,0,2.26-.23,3,3,0,0,0,1.4-.75,2.89,2.89,0,0,0,.73-1.4,9.83,9.83,0,0,0,.21-2.22V23.22c0-.65.31-1,.92-1h4.09c.62,0,.92.31.92,1V36.76a12.87,12.87,0,0,1-.5,3.86,5.65,5.65,0,0,1-1.65,2.63,7,7,0,0,1-3.07,1.49,21,21,0,0,1-4.72.46H306.08a21,21,0,0,1-4.74-.46,6.87,6.87,0,0,1-3-1.49,5.65,5.65,0,0,1-1.65-2.63,12.85,12.85,0,0,1-.51-3.86V23.22a1,1,0,0,1,1-1Z"/>
      <path class="cls-2" d="M355.06,13.77a.92.92,0,0,1,.91.92v4c0,.64-.3,1-.91,1H351a1,1,0,0,1-1-1v-4c0-.61.32-.92,1-.92Zm0,8.49c.61,0,.91.31.91,1V44.28a.92.92,0,0,1-.92.92H351a.92.92,0,0,1-.92-.92V23.22c0-.65.31-1,.92-1Z"/>
      <path class="cls-2" d="M381.93,22.26a20.35,20.35,0,0,1,4.72.47,7.19,7.19,0,0,1,3.07,1.51,5.74,5.74,0,0,1,1.66,2.63,13.23,13.23,0,0,1,.5,3.87v6a13.2,13.2,0,0,1-.5,3.86,5.74,5.74,0,0,1-1.66,2.63,6.85,6.85,0,0,1-3.07,1.49,21,21,0,0,1-4.72.46H370.11a21,21,0,0,1-4.75-.46,7,7,0,0,1-3.05-1.49,5.81,5.81,0,0,1-1.65-2.63,13.2,13.2,0,0,1-.5-3.86v-6a13.23,13.23,0,0,1,.5-3.87,5.81,5.81,0,0,1,1.65-2.63,7.34,7.34,0,0,1,3.05-1.51,20.39,20.39,0,0,1,4.75-.47ZM366.14,35.71a9.89,9.89,0,0,0,.2,2.22,2.82,2.82,0,0,0,.74,1.39,3,3,0,0,0,1.4.76,9,9,0,0,0,2.21.23h10.66a9.21,9.21,0,0,0,2.25-.23,3,3,0,0,0,1.4-.76,2.73,2.73,0,0,0,.73-1.39,9.83,9.83,0,0,0,.21-2.22v-4a9.48,9.48,0,0,0-.21-2.17,2.87,2.87,0,0,0-.73-1.42,2.64,2.64,0,0,0-1.4-.75,9.87,9.87,0,0,0-2.25-.21H370.69a9.67,9.67,0,0,0-2.21.21,2.64,2.64,0,0,0-1.4.75,3,3,0,0,0-.74,1.42,9.54,9.54,0,0,0-.2,2.17Z"/>
      <path class="cls-2" d="M417.91,22.26a20.35,20.35,0,0,1,4.72.47,7.29,7.29,0,0,1,3.08,1.51,5.81,5.81,0,0,1,1.65,2.63,13.23,13.23,0,0,1,.5,3.87V44.28a.92.92,0,0,1-.92.92h-4.1a.92.92,0,0,1-.92-.92V32.16a12.55,12.55,0,0,0-.16-2.2,2.93,2.93,0,0,0-.65-1.42,2.75,2.75,0,0,0-1.32-.75,8.56,8.56,0,0,0-2.17-.23H406.51a9.11,9.11,0,0,0-2.22.23,3.09,3.09,0,0,0-1.4.75,2.91,2.91,0,0,0-.73,1.42,9.88,9.88,0,0,0-.21,2.2V44.28a.92.92,0,0,1-.92.92h-4.09c-.65,0-1-.31-1-.92V30.74a12.87,12.87,0,0,1,.51-3.87,5.65,5.65,0,0,1,1.65-2.63,7.22,7.22,0,0,1,3.05-1.51,20.3,20.3,0,0,1,4.74-.47Z"/>
      <path class="cls-2" d="M338.18,29.12h6.93a.78.78,0,0,0,.77-.77l0-3.84a.43.43,0,0,0-.43-.43h-7.79a.76.76,0,0,1-.77-.76V15.51a.43.43,0,0,0-.43-.43h-4.15a.45.45,0,0,0-.45.45V28.62a.5.5,0,0,0,.5.5h5.84Z"/>
      <path class="cls-2" d="M345.38,40.43h-4.05a3.62,3.62,0,0,1-2.8-.82,3.81,3.81,0,0,1-.71-2.57V30.67h-6V37a16.78,16.78,0,0,0,.38,3.81,5.45,5.45,0,0,0,1.35,2.59,5.81,5.81,0,0,0,2.62,1.46,15.33,15.33,0,0,0,4.13.46h5.06a.75.75,0,0,0,.75-.75V41.18A.74.74,0,0,0,345.38,40.43Z"/>
      <path class="cls-1" d="M22.63,36.63a3.46,3.46,0,0,1,3.18-1.88h9.94a9.3,9.3,0,0,0,2.15-.21,2,2,0,0,0,.88-.45,1.78,1.78,0,0,0,.41-.85,10.31,10.31,0,0,0,.19-2.12V26.93a10.18,10.18,0,0,0-.19-2.14,1.84,1.84,0,0,0-.41-.84,2,2,0,0,0-.88-.44,8.72,8.72,0,0,0-2.15-.21H18.35a1.19,1.19,0,0,0-1.19,1.19V42a1.47,1.47,0,0,1-1.47,1.47H9.08A1.47,1.47,0,0,1,7.61,42V.18A9.45,9.45,0,0,0,0,9.45V48.28a9.45,9.45,0,0,0,9.45,9.45H40.56L23.28,40.31A3.22,3.22,0,0,1,22.63,36.63Z"/>
      <path class="cls-1" d="M48.28,0H17.16V13.49a1,1,0,0,0,1.05,1h18.2a25.09,25.09,0,0,1,5.69.56,9.42,9.42,0,0,1,4.13,2,8,8,0,0,1,2.31,3.67,16.46,16.46,0,0,1,.64,4.82v6.78a16.46,16.46,0,0,1-.64,4.82,8,8,0,0,1-2.31,3.66,9.57,9.57,0,0,1-4.12,2.05,18.53,18.53,0,0,1-2.42.35L52.86,56.54a9.42,9.42,0,0,0,4.87-8.26V9.45A9.45,9.45,0,0,0,48.28,0Z"/>
    </g>
  </g>
</svg>