<svg xmlns="http://www.w3.org/2000/svg" viewBox="0 0 479.32 454.33"><defs><style>.cls-1{opacity:0.3;}.cls-11,.cls-2,.cls-3,.cls-5,.cls-6{fill:#2ab99b;}.cls-3{opacity:0.7;}.cls-12,.cls-17,.cls-19,.cls-4,.cls-7{fill:none;}.cls-14,.cls-15,.cls-16,.cls-17,.cls-20,.cls-4,.cls-5,.cls-6,.cls-7,.cls-8,.cls-9{stroke:#2f2f31;}.cls-10,.cls-11,.cls-13,.cls-15,.cls-16,.cls-17,.cls-19,.cls-20,.cls-21,.cls-4,.cls-5,.cls-8,.cls-9{stroke-linecap:round;stroke-linejoin:round;}.cls-12,.cls-14,.cls-6,.cls-7{stroke-miterlimit:10;}.cls-10,.cls-8{fill:#fff;}.cls-14,.cls-21,.cls-22,.cls-9{fill:#2f2f31;}.cls-10,.cls-11,.cls-12,.cls-13,.cls-19,.cls-21{stroke:#263238;}.cls-13,.cls-18{fill:#263238;}.cls-15{fill:#999;}.cls-16{fill:#bdbdbd;}.cls-17{stroke-width:0.75px;}.cls-20{fill:#d4d4d4;}</style></defs><g id="Background_Simple" data-name="Background Simple"><g class="cls-1"><path class="cls-2" d="M477.88,234.79c-5.1,43.2-24.83,93.42-64.22,116.5-59.52,34.87-54.54,88.5-170.72,111.81A238.8,238.8,0,0,1,191.43,468a198,198,0,0,1-25.28-2.06C92.31,455.12,42.62,403.8,24.39,341.84.4,260.36,48.3,207,80.06,174.88s55-132.29,169-156.11a231.93,231.93,0,0,1,52.94-5c40.58,1,84.83,14.32,115.45,42.13q3.45,3.14,6.71,6.49C466.75,106,484.84,175.89,477.88,234.79Z" transform="translate(-5.65 -13.68)"/><path class="cls-3" d="M477.88,234.79c-5.1,43.2-24.83,93.42-64.22,116.5-59.52,34.87-54.54,88.5-170.72,111.81A238.8,238.8,0,0,1,191.43,468a198,198,0,0,1-25.28-2.06C92.31,455.12,42.62,403.8,24.39,341.84.4,260.36,48.3,207,80.06,174.88s55-132.29,169-156.11a231.93,231.93,0,0,1,52.94-5c40.58,1,84.83,14.32,115.45,42.13q3.45,3.14,6.71,6.49C466.75,106,484.84,175.89,477.88,234.79Z" transform="translate(-5.65 -13.68)"/></g></g><g id="Floor"><line class="cls-4" x1="339.64" y1="448.32" x2="478.82" y2="448.32"/><line class="cls-4" x1="19.15" y1="448.32" x2="330.52" y2="448.32"/></g><g id="Plant"><path class="cls-5" d="M33,255.62s-3.43,9.44-10.72,10.72-20.16-12.86-12-20.15S29.55,250.48,33,255.62Z" transform="translate(-5.65 -13.68)"/><path class="cls-5" d="M44.13,209.3s-10.72,26.16-6.43,39,30.88,22.3,38.6,5.58-9.44-40.32-15.87-45.47S46.28,205,44.13,209.3Z" transform="translate(-5.65 -13.68)"/><path class="cls-5" d="M106.75,220.45s-18.44,16.73-20.59,33.46,10.3,22.73,23.16,20.58,19.3-34.74,15.45-49.75S106.75,220.45,106.75,220.45Z" transform="translate(-5.65 -13.68)"/><path class="cls-5" d="M110.18,313.09S89.6,314,88.74,323.82s9,12,18.87,3.43S118.76,313.52,110.18,313.09Z" transform="translate(-5.65 -13.68)"/><path class="cls-6" d="M89.08,326.17s16.22-7.43,23.53-8.72" transform="translate(-5.65 -13.68)"/><path class="cls-5" d="M114.77,377.64s-15.12-14-22.72-7.65-2.17,14.85,10.87,15.8S120.52,384,114.77,377.64Z" transform="translate(-5.65 -13.68)"/><path class="cls-6" d="M90.62,371.89s16.7,6.27,22.77,10.55" transform="translate(-5.65 -13.68)"/><path class="cls-5" d="M35,373.52S55.85,354.23,66.33,363s3,20.48-15,21.79S27.09,382.32,35,373.52Z" transform="translate(-5.65 -13.68)"/><path class="cls-6" d="M68.3,365.59s-23,8.65-31.39,14.54" transform="translate(-5.65 -13.68)"/><path class="cls-5" d="M59.14,333.68S57,344,49.28,347.83s-21.44-4.29-14.15-16.72S55.28,328.53,59.14,333.68Z" transform="translate(-5.65 -13.68)"/><path class="cls-5" d="M41.13,301.51s-3.86-8.57-18.87-3-21,14.15-11.58,17.16S41.13,301.51,41.13,301.51Z" transform="translate(-5.65 -13.68)"/><path class="cls-7" d="M38.26,301.12s-15.9,1.72-24.5,9" transform="translate(-5.65 -13.68)"/><path class="cls-5" d="M84,198.58s2.57,6,7.72,4.72,6.43-9,14.58-6.86,15,11.58,15,7.29S111,188.29,99.46,188.29,84.45,193,84,198.58Z" transform="translate(-5.65 -13.68)"/><path class="cls-7" d="M41.13,301.51s18.47-3.54,26.16,17a58.63,58.63,0,0,1,1.93,6.27" transform="translate(-5.65 -13.68)"/><path class="cls-5" d="M118.21,281.65s3.86-8.58,18.87-3,21,14.16,11.58,17.16S118.21,281.65,118.21,281.65Z" transform="translate(-5.65 -13.68)"/><path class="cls-7" d="M121.64,282.21s15.47-.86,22.77,8.17" transform="translate(-5.65 -13.68)"/><path class="cls-7" d="M118.21,281.65a23.76,23.76,0,0,0-12.79,1.74" transform="translate(-5.65 -13.68)"/><path class="cls-7" d="M51,266.26c-9.06-9.24-18-10.64-18-10.64s-13.2-3.49-18.36,1.24" transform="translate(-5.65 -13.68)"/><line class="cls-7" x1="47.16" y1="205.07" x2="46.36" y2="201.49"/><path class="cls-7" d="M73.7,408.36s1.92-73.86,0-96.29-10.9-48.71-10.9-48.71l-9.14-40.81" transform="translate(-5.65 -13.68)"/><line class="cls-7" x1="106.16" y1="220.93" x2="107.82" y2="217.39"/><path class="cls-7" d="M78.18,408.28s.65-67.37,3.21-86.6,12.82-49.35,12.82-49.35l15.73-33.71" transform="translate(-5.65 -13.68)"/><path class="cls-7" d="M89.08,326.17s-4.49,38.62-7,82.2" transform="translate(-5.65 -13.68)"/><path class="cls-7" d="M67.29,408.28s1.28-61.61-1.28-69.94-6.87-4.66-6.87-4.66S47.28,335.08,43,342" transform="translate(-5.65 -13.68)"/><path class="cls-7" d="M70.23,329.55c3.36,18.79.26,78.79.26,78.79" transform="translate(-5.65 -13.68)"/><path class="cls-7" d="M101.79,285.4c-3.71,2.54-7.28,6.64-9.74,13.21-7.69,20.51-6.82,109.76-6.82,109.76" transform="translate(-5.65 -13.68)"/><path class="cls-7" d="M53.21,268.71a60.71,60.71,0,0,1,10.88,19.65c10.25,29.48,14.09,105.82,12.17,119.92" transform="translate(-5.65 -13.68)"/><path class="cls-7" d="M79.25,296.29c-.62,37.21-1.07,112-1.07,112" transform="translate(-5.65 -13.68)"/><path class="cls-7" d="M79.33,291.67c.42-24.61.92-48.68,1.42-61.63C82,196.71,84,198.58,84,198.58s2.37-7.48,15.7-6.62" transform="translate(-5.65 -13.68)"/><path class="cls-5" d="M62.92,319.76s-10.73-9.56-6.44-14.26,30.88-8.15,38.6-2-9.43,14.73-15.87,16.61S65.06,321.33,62.92,319.76Z" transform="translate(-5.65 -13.68)"/><path class="cls-6" d="M72.82,311.93a18.81,18.81,0,0,0-.24,2.86" transform="translate(-5.65 -13.68)"/><path class="cls-6" d="M76.51,300.77a48.51,48.51,0,0,0-2.76,7.1" transform="translate(-5.65 -13.68)"/><path class="cls-5" d="M62.92,382.28S52.19,372.72,56.48,368s30.88-8.15,38.6-2-9.43,14.73-15.87,16.61S65.06,383.84,62.92,382.28Z" transform="translate(-5.65 -13.68)"/><path class="cls-7" d="M76.51,363.29s-3.93,7.85-3.93,14" transform="translate(-5.65 -13.68)"/><path class="cls-5" d="M70.9,355.84s-7.28-6.49-4.37-9.69,21-5.53,26.21-1.38-6.41,10-10.78,11.28S72.35,356.9,70.9,355.84Z" transform="translate(-5.65 -13.68)"/><path class="cls-6" d="M80.12,342.94s-2.66,5.33-2.66,9.52" transform="translate(-5.65 -13.68)"/><rect class="cls-8" x="55.18" y="383.96" width="29.02" height="64.36"/></g><g id="Tab_2" data-name="Tab 2"><rect class="cls-9" x="263.72" y="266.29" width="99.82" height="87.75" rx="4.37"/><rect class="cls-10" x="260.55" y="261.54" width="99.82" height="87.75" rx="4.37"/><path class="cls-5" d="M366,286.31v-6.72a4.37,4.37,0,0,0-4.37-4.37H270.57a4.37,4.37,0,0,0-4.37,4.37v6.72Z" transform="translate(-5.65 -13.68)"/><circle class="cls-10" cx="334.04" cy="267.37" r="2.67"/><path class="cls-10" d="M350.83,281.05a2.68,2.68,0,1,0-2.67,2.67A2.67,2.67,0,0,0,350.83,281.05Z" transform="translate(-5.65 -13.68)"/><circle class="cls-10" cx="350.97" cy="267.37" r="2.67"/><path class="cls-7" d="M353.65,292.33H279.77a2.29,2.29,0,0,0-2.29,2.29v28l5.33-8.35h70.84a2.28,2.28,0,0,0,2.29-2.28V294.62A2.29,2.29,0,0,0,353.65,292.33Z" transform="translate(-5.65 -13.68)"/><path class="cls-7" d="M279.77,327.39h73.88a2.29,2.29,0,0,1,2.29,2.29v28l-5.33-8.35H279.77a2.28,2.28,0,0,1-2.29-2.29v-17.4A2.29,2.29,0,0,1,279.77,327.39Z" transform="translate(-5.65 -13.68)"/><circle class="cls-11" cx="285.32" cy="289.5" r="6.68"/><circle class="cls-11" cx="285.32" cy="287.56" r="2.78"/><path class="cls-11" d="M291,309.86a6.63,6.63,0,0,0,3.9-1.26,3.9,3.9,0,0,0-7.8,0A6.65,6.65,0,0,0,291,309.86Z" transform="translate(-5.65 -13.68)"/><line class="cls-12" x1="296.73" y1="283.94" x2="319.43" y2="283.94"/><line class="cls-12" x1="297.21" y1="290.41" x2="344.01" y2="290.41"/><line class="cls-12" x1="297.21" y1="294.5" x2="344.01" y2="294.5"/><circle class="cls-13" cx="285.32" cy="325.28" r="6.68"/><circle class="cls-10" cx="285.32" cy="323.33" r="2.78"/><path class="cls-10" d="M291,345.64a6.64,6.64,0,0,0,3.9-1.27,3.9,3.9,0,0,0-7.8,0A6.66,6.66,0,0,0,291,345.64Z" transform="translate(-5.65 -13.68)"/><line class="cls-12" x1="296.73" y1="319.72" x2="319.43" y2="319.72"/><line class="cls-12" x1="297.21" y1="326.18" x2="344.01" y2="326.18"/><line class="cls-12" x1="297.21" y1="330.28" x2="344.01" y2="330.28"/></g><g id="Tab_1" data-name="Tab 1"><path class="cls-9" d="M117.49,215.36H244.77a2.06,2.06,0,0,1,2.06,2.06v68.49a3.45,3.45,0,0,1-3.45,3.45H118.88a3.45,3.45,0,0,1-3.45-3.45V217.42A2.06,2.06,0,0,1,117.49,215.36Z"/><path class="cls-9" d="M117.49,215.36H244.77a2.06,2.06,0,0,1,2.06,2.06v10a0,0,0,0,1,0,0H115.43a0,0,0,0,1,0,0v-10A2.06,2.06,0,0,1,117.49,215.36Z"/><circle class="cls-9" cx="219.93" cy="221.58" r="2.67"/><circle class="cls-9" cx="228.39" cy="221.58" r="2.67"/><circle class="cls-9" cx="236.86" cy="221.58" r="2.67"/><rect class="cls-14" x="129.52" y="238.97" width="26.98" height="25.78"/><line class="cls-14" x1="165.5" y1="241.97" x2="236.26" y2="241.97"/><line class="cls-14" x1="165.5" y1="250.36" x2="236.26" y2="250.36"/><line class="cls-14" x1="165.5" y1="258.76" x2="236.26" y2="258.76"/><line class="cls-14" x1="165.5" y1="267.15" x2="236.26" y2="267.15"/><path class="cls-8" d="M114.32,210.61H241.6a2.06,2.06,0,0,1,2.06,2.06v68.49a3.45,3.45,0,0,1-3.45,3.45H115.71a3.45,3.45,0,0,1-3.45-3.45V212.67A2.06,2.06,0,0,1,114.32,210.61Z"/><path class="cls-5" d="M114.32,210.61H241.6a2.06,2.06,0,0,1,2.06,2.06v10a0,0,0,0,1,0,0H112.26a0,0,0,0,1,0,0v-10A2.06,2.06,0,0,1,114.32,210.61Z"/><circle class="cls-8" cx="216.76" cy="216.83" r="2.67"/><circle class="cls-8" cx="225.22" cy="216.83" r="2.67"/><circle class="cls-8" cx="233.69" cy="216.83" r="2.67"/><rect class="cls-12" x="126.36" y="234.22" width="26.98" height="25.78"/><line class="cls-12" x1="162.33" y1="237.22" x2="233.09" y2="237.22"/><line class="cls-12" x1="162.33" y1="245.61" x2="233.09" y2="245.61"/><line class="cls-12" x1="162.33" y1="254" x2="233.09" y2="254"/><line class="cls-12" x1="162.33" y1="262.4" x2="233.09" y2="262.4"/></g><g id="Chart_3" data-name="Chart 3"><rect class="cls-9" x="263.72" y="161.05" width="99.82" height="87.75" rx="4.37"/><rect class="cls-8" x="260.55" y="156.3" width="99.82" height="87.75" rx="4.37"/><rect class="cls-9" x="273.25" y="191.43" width="9.21" height="42.57"/><rect class="cls-5" x="286.3" y="198.34" width="9.21" height="35.67"/><rect class="cls-8" x="299.34" y="204.09" width="9.21" height="29.92"/><rect class="cls-9" x="312.38" y="186.45" width="9.21" height="47.56"/><rect class="cls-5" x="325.42" y="192.2" width="9.21" height="41.81"/><rect class="cls-8" x="338.46" y="172.25" width="9.21" height="61.75"/><line class="cls-7" x1="273.88" y1="167.82" x2="283.08" y2="167.82"/><line class="cls-7" x1="273.88" y1="171.65" x2="283.08" y2="171.65"/><line class="cls-7" x1="273.88" y1="175.49" x2="283.08" y2="175.49"/><line class="cls-7" x1="286.15" y1="167.82" x2="323.36" y2="167.82"/><line class="cls-7" x1="286.15" y1="171.65" x2="323.36" y2="171.65"/><line class="cls-7" x1="286.15" y1="175.49" x2="323.36" y2="175.49"/></g><g id="Chart_2" data-name="Chart 2"><rect class="cls-13" x="263.72" y="57.08" width="99.82" height="87.75" rx="4.37"/><rect class="cls-10" x="260.55" y="52.33" width="99.82" height="87.75" rx="4.37"/><circle class="cls-8" cx="308.01" cy="94.39" r="28"/><path class="cls-9" d="M340.84,101.32a28,28,0,0,0-47-13l19.8,19.8Z" transform="translate(-5.65 -13.68)"/><path class="cls-5" d="M340.84,101.32l-27.17,6.75-8.09,26.81a28,28,0,0,0,35.26-33.56Z" transform="translate(-5.65 -13.68)"/><polyline class="cls-7" points="319.14 76.75 328.34 64.86 334.1 64.86"/><line class="cls-7" x1="339.46" y1="65.24" x2="348.67" y2="65.24"/><line class="cls-7" x1="339.46" y1="69.08" x2="348.67" y2="69.08"/><line class="cls-7" x1="339.46" y1="72.92" x2="348.67" y2="72.92"/><line class="cls-7" x1="339.46" y1="115.11" x2="348.67" y2="115.11"/><line class="cls-7" x1="339.46" y1="118.94" x2="348.67" y2="118.94"/><line class="cls-7" x1="339.46" y1="122.78" x2="348.67" y2="122.78"/><line class="cls-7" x1="268.12" y1="114.34" x2="277.33" y2="114.34"/><line class="cls-7" x1="268.12" y1="118.17" x2="277.33" y2="118.17"/><line class="cls-7" x1="268.12" y1="122.01" x2="277.33" y2="122.01"/><polyline class="cls-7" points="292.29 113.19 288.84 122.01 279.63 122.01"/><polyline class="cls-7" points="329.49 102.45 344.83 102.45 344.83 107.43"/></g><g id="Chart_1" data-name="Chart 1"><rect class="cls-9" x="143.98" y="57.4" width="100.37" height="87.75" rx="4.37"/><rect class="cls-8" x="139.73" y="52.33" width="100.37" height="87.75" rx="4.37"/><line class="cls-7" x1="150.14" y1="123.47" x2="150.14" y2="126.85"/><line class="cls-7" x1="158.32" y1="123.47" x2="158.32" y2="126.85"/><line class="cls-7" x1="166.49" y1="123.47" x2="166.49" y2="126.85"/><line class="cls-7" x1="174.67" y1="123.47" x2="174.67" y2="126.85"/><line class="cls-7" x1="182.84" y1="123.47" x2="182.84" y2="126.85"/><line class="cls-7" x1="191.01" y1="123.47" x2="191.01" y2="126.85"/><line class="cls-7" x1="199.19" y1="123.47" x2="199.19" y2="126.85"/><line class="cls-7" x1="207.36" y1="123.47" x2="207.36" y2="126.85"/><line class="cls-7" x1="215.54" y1="123.47" x2="215.54" y2="126.85"/><line class="cls-7" x1="223.71" y1="123.47" x2="223.71" y2="126.85"/><line class="cls-7" x1="231.89" y1="123.47" x2="231.89" y2="126.85"/><polygon class="cls-5" points="228.48 76.04 219.62 80.78 212.47 66.56 203.28 78.41 195.1 71.3 187.27 62.49 179.09 71.98 170.92 95.01 162.06 86.54 153.21 92.98 153.21 114.32 228.48 114.32 228.48 76.04"/><line class="cls-7" x1="153.41" y1="62.3" x2="162.67" y2="62.3"/><line class="cls-7" x1="153.41" y1="66.14" x2="162.67" y2="66.14"/><line class="cls-7" x1="153.41" y1="69.97" x2="162.67" y2="69.97"/><polygon class="cls-9" points="228.48 94.8 219.62 98.06 212.47 82.24 203.28 93.32 195.1 90.61 187.27 107.55 179.09 84.85 170.92 107.55 162.06 99.08 153.21 110.25 153.21 118.39 228.48 118.39 228.48 94.8"/></g><g id="Character_2" data-name="Character 2"><path class="cls-9" d="M413,114.54s-3.32-8.78-12.81-7.83-13.75,8.54-12.09,13.52a42.77,42.77,0,0,0,2.61,6.64s-3.09-1.42-2.14,3.55,8.07,4,9.25,3.56S404.23,120.23,413,114.54Z" transform="translate(-5.65 -13.68)"/><path class="cls-9" d="M352.58,199.63,335.74,208a1.88,1.88,0,0,0-.08,3.31l44.93,25.26a1.88,1.88,0,0,0,2.34-.41l10.55-12.27a1.88,1.88,0,0,0-.51-2.86l-38.64-21.41A1.87,1.87,0,0,0,352.58,199.63Z" transform="translate(-5.65 -13.68)"/><path class="cls-10" d="M393.65,214.79l-7.09-4.59s-5.31-5.95-7.3-7-15.36,1.4-15.36,1.4l29.38,16.61Z" transform="translate(-5.65 -13.68)"/><path class="cls-10" d="M379.17,207.54s-5.22.23-8.44-1.14-5.07-.73-3.39,2,6.89,2.47,6.89,2.47,4.55,5.54,10.07,3.37" transform="translate(-5.65 -13.68)"/><path class="cls-8" d="M451,446.29s3,11.4,2.73,13.39-6.45,3.72-9.92,3.72a84.17,84.17,0,0,0-10.42,1.24l.25-18.35Z" transform="translate(-5.65 -13.68)"/><path class="cls-8" d="M453.73,459.68a13.24,13.24,0,0,0-.33-3,41.47,41.47,0,0,1-7.61,3.2c-4.21,1.21-10.22,1.28-12.35,1.26l-.05,3.46a84.17,84.17,0,0,1,10.42-1.24C447.28,463.4,453.48,461.66,453.73,459.68Z" transform="translate(-5.65 -13.68)"/><path class="cls-15" d="M429.92,336.71s3.22,27,4.46,32.23,7.44,14.13,9.92,28,7.2,46.12,7.2,46.86.49,3,.74,4.46c0,0-5.46,2.23-9.42,1.74a56.08,56.08,0,0,1-7.44-1.49s1.73-10.66-2-29.75S426,379.85,423.72,366,429.92,336.71,429.92,336.71Z" transform="translate(-5.65 -13.68)"/><path class="cls-8" d="M417.27,443.31a30.77,30.77,0,0,1-5.7,6.2c-4.22,3.72-12.16,7.69-14.39,8.68s-4,1-3.47,3.22,4.21,4,15.38,4,23.06-.5,24.3-.74,5-.25,5-3S437.11,448,437.11,448Z" transform="translate(-5.65 -13.68)"/><path class="cls-8" d="M433.39,464.64c1.24-.25,5-.25,5-3,0-.4,0-1-.07-1.67-4.25.55-13.87,1.74-24.73,2.66a49.08,49.08,0,0,1-19.92-2,2.9,2.9,0,0,0,.08.79c.49,2.23,4.21,4,15.38,4S432.15,464.88,433.39,464.64Z" transform="translate(-5.65 -13.68)"/><path class="cls-16" d="M391,279.69a345.6,345.6,0,0,0,2.48,41.65c2.73,22.06,10.67,48.84,10.67,48.84s4,21.57,5.2,29,7.69,36.7,7.69,36.7l-2.73,3.72.5,6.44,9.92,2.23a50.18,50.18,0,0,0,12.4,1.49s.5-12.89.25-14.63-1.74-9.91-2-12.64.49-33-1.24-39.92-4.72-17.1-4.72-26,6.7-52.56,6.7-52.56,7.19-10.16,7.19-16.11a41.2,41.2,0,0,0-.74-8.93Z" transform="translate(-5.65 -13.68)"/><path class="cls-17" d="M426.14,427.48c.56,5.48.8,9.12.8,9.12s-1.6.8-.8,3.59,1.2,4.78,1.2,4.78" transform="translate(-5.65 -13.68)"/><path class="cls-17" d="M410.12,307.89a187,187,0,0,0,1.28,37.48c4,27.89,10.76,53,12.75,66.13.6,4,1.09,7.81,1.49,11.26" transform="translate(-5.65 -13.68)"/><path class="cls-17" d="M411.79,292s-.75,4.38-1.35,11.5" transform="translate(-5.65 -13.68)"/><path class="cls-9" d="M438.86,122.6s3.08-12.33,21.58-10.91S478.71,130,478.71,130l-4-1.9s3.32,9.72-.48,16.84-13.52,11.14-19.92,10S441,147.73,440,144.41,442.65,129.48,438.86,122.6Z" transform="translate(-5.65 -13.68)"/><path class="cls-8" d="M402.09,121.18s-1.42,2.37-4.27,7.35-1.66,9.48-3.56,11.85-7.11,2.14-6.4,4.51,3.79,4,3.79,4,0,13.28,1.43,14.94,12.33-1.19,12.33-1.19,2.14,3.32.71,10.67-14.23,27.74-15.89,37.94,4,35.57,4,35.57l-5.45,37a75.79,75.79,0,0,0,30.12,3.8c16.37-1.42,26.33-4.74,26.33-4.74L434.35,240s.95-30.35-1.18-47.19-7.59-20.86-7.59-27,7.82-9.48,12.8-15.41a24.85,24.85,0,0,0,2.38-25.84c-3.89-8.39-16.37-11.62-24.91-11.86S402.09,121.18,402.09,121.18Z" transform="translate(-5.65 -13.68)"/><path class="cls-13" d="M405.41,162.67l5.2-1.16L407.37,168A18.6,18.6,0,0,0,405.41,162.67Z" transform="translate(-5.65 -13.68)"/><path class="cls-5" d="M445.26,282.89,434.35,240s.95-30.35-1.18-47.19a69.53,69.53,0,0,0-2.25-11c-3.49-2.71-8.87-6.13-14.36-6.55-6.37-.49-12.73,6.88-16.08,11.53-4.18,8.47-9.25,18.35-10.25,24.51-1.66,10.19,4,35.57,4,35.57l-5.45,37a75.79,75.79,0,0,0,30.12,3.8C435.3,286.21,445.26,282.89,445.26,282.89Z" transform="translate(-5.65 -13.68)"/><path class="cls-9" d="M415.85,112.64c-8.54-.24-13.76,8.54-13.76,8.54s-.74,1.24-2.22,3.79c1.48-1.76,6.86-7.53,9.1-1.42,1.31,3.56-1.9,8.53-.24,10.19s5,5.46,4.51,6.17a7.82,7.82,0,0,0-.71,2.37s4.27-6.17,7.59-2.37-1.19,10.91-1.19,10.91l-2.84.94S425.34,162.2,427,162.2c.46,0,1.66-3.56,3.79-4.27a74.84,74.84,0,0,0,7.59-7.59,24.85,24.85,0,0,0,2.38-25.84C436.87,116.1,424.39,112.88,415.85,112.64Z" transform="translate(-5.65 -13.68)"/><path class="cls-18" d="M399.7,139.75c-.26,1.22-.89,2.12-1.4,2s-.72-1.19-.46-2.41.89-2.11,1.4-2S400,138.53,399.7,139.75Z" transform="translate(-5.65 -13.68)"/><path class="cls-19" d="M397.82,134s2.61-2.84,4.27.71" transform="translate(-5.65 -13.68)"/><path class="cls-19" d="M393.55,151.76s.48,1,3.09,0" transform="translate(-5.65 -13.68)"/><path class="cls-5" d="M409.21,188s-3.56,5-5,14.23-.24,39.36-.24,39.36-20.16-5.69-26.81-9a96.53,96.53,0,0,1-8.77-4.74s-2.14-5-3.8-6.88-6.16-2.37-7.82-3.56-2.85-5-5-3.55a2.33,2.33,0,0,0-.23,4c.95.71,4.5,4.27,4.5,4.27l-9-4s-.71,3.55.47,4.74,3.56,3.32,3.56,3.32,3.56,5,5.7,6.16a37.7,37.7,0,0,0,6.64,2.37c2.12.71,4.26,2.52,6.16,3.68l12.09,7.34a107.44,107.44,0,0,0,19.78,9.31c4.32,1.52,14.89,6.15,18.64,1.5,1.62-2,1.12-8,1.54-10.49,2.65-15.9,6.07-31.9,6.07-48.09" transform="translate(-5.65 -13.68)"/><path class="cls-8" d="M396.8,239.51c-6.47-2-15.56-4.86-19.62-6.89a96.53,96.53,0,0,1-8.77-4.74s-2.14-5-3.8-6.88-6.16-2.37-7.82-3.56-2.85-5-5-3.55a2.33,2.33,0,0,0-.23,4c.95.71,4.5,4.27,4.5,4.27l-9-4s-.71,3.56.47,4.75,3.56,3.32,3.56,3.32,3.56,5,5.7,6.16a37.7,37.7,0,0,0,6.64,2.37c2.12.71,4.26,2.52,6.16,3.68l12.09,7.34A106.1,106.1,0,0,0,393.77,252Z" transform="translate(-5.65 -13.68)"/><polyline class="cls-4" points="405.22 234.83 398.34 227.95 400.24 234.35"/></g><g id="Character_1" data-name="Character 1"><path class="cls-9" d="M108.09,345s-4.29,25.72-9.89,49.46-4,56.71-4,56.71-3,6.27-.33,9.24,6.93,2,7.92,2,7.91-.33,7.91-.33S115,430.73,117,402.37s.33-71.55-1.65-69.9-6.26,10.22-6.26,10.22Z" transform="translate(-5.65 -13.68)"/><path class="cls-9" d="M94.57,261.58s-4,23.08-3,29.67a114.76,114.76,0,0,0,3.63,14.84s8.9,39.57,9.89,42.54,0,38.25-2,53.74,1.32,25.72,2,30.67.33,21.1.33,21.1l-.66,9.23s4.62,1.65,12.86,1.65,25.72,1,25.72,1,10.55-.33,9.56-4.94-12.86-6.93-16.15-9.9a73.1,73.1,0,0,1-5.61-5.6s.33-3.3-.33-4.95-3.3-1.65-3-3.95,5.94-54.74,10.23-68.26,7.58-68.91,7.25-78.47S143,265.87,143,265.87Z" transform="translate(-5.65 -13.68)"/><path class="cls-20" d="M98,171.58s-9.74,20.68-11.15,34.88,6.28,49.48,6.28,49.48-3,8.92-.81,10.34,51.92,4.06,51.92,4.06,3-.41,3-3-.81-4.46-1.22-6.69.61-47.87-3.85-58-13.59-22.51-13.59-22.51Z" transform="translate(-5.65 -13.68)"/><path class="cls-4" d="M106.78,255.38c5.51-7.26,13.79-18.43,19.67-27.49" transform="translate(-5.65 -13.68)"/><path class="cls-4" d="M100.94,263s1.1-1.4,2.89-3.73" transform="translate(-5.65 -13.68)"/><path class="cls-4" d="M125.65,223.51s-19.13,13.15-21.52,14" transform="translate(-5.65 -13.68)"/><path class="cls-10" d="M139.57,116s3.25-10.75,3.86-14a24.84,24.84,0,0,1,2.23-6.28v7.91s2.43-2.84,5.07-6.29,5.07-3.24,4.05.41-3.65,7.7-3.85,8.31a59.1,59.1,0,0,1-2.43,7.71,33.14,33.14,0,0,1-4.26,6.08Z" transform="translate(-5.65 -13.68)"/><path class="cls-10" d="M126.39,124.12,139.57,116s3.65-.41,4.67,3.85.4,1.83.4,1.83l-10.34,14.6Z" transform="translate(-5.65 -13.68)"/><path class="cls-8" d="M124.57,118.85s-9.94-10.35-12.37-9.53-1.22,5.07-1.22,5.07-5.88-2.24-6.09-.61l-.2,1.62s-10.54,6.29-13.38,13-3.25,13.18,0,16.83,11.15,16.63,11.15,16.63l.2,6.29,20.08,5.07,1.83-8.52s9.53,0,10.34-1.42,1.22-17,1.22-17l4.25-5.28s-7.7-8.92-8.92-11.56A66.94,66.94,0,0,0,124.57,118.85Z" transform="translate(-5.65 -13.68)"/><path class="cls-4" d="M134.9,150.18s-1,1.26-3.47-1.26" transform="translate(-5.65 -13.68)"/><path class="cls-21" d="M124.57,118.85s-9.94-10.35-12.37-9.53-1.22,5.07-1.22,5.07-5.88-2.24-6.09-.61l-.2,1.62s-10.54,6.29-13.38,13-3.25,13.18,0,16.83c2.51,2.82,7.8,11.22,10.07,14.88a14.92,14.92,0,0,0,4.12-.07c5.68-1,9.53-7.51,9.53-7.51s-3.85-1.21-4-6.28,3-6.09,3-6.09,2.84,3.25,5.27,1.83-3-4.06-3.85-6.09,1.22-4.86,1.62-6.28-3.85-1-5.47-1.83,7.09-4.87,8.92-6.08-2-.41-4.26-1.63S124.57,118.85,124.57,118.85Z" transform="translate(-5.65 -13.68)"/><path class="cls-22" d="M130.19,134.26c.4,1.11.33,2.14-.14,2.31s-1.18-.59-1.58-1.7-.33-2.14.15-2.31S129.8,133.15,130.19,134.26Z" transform="translate(-5.65 -13.68)"/><path class="cls-4" d="M125.58,131s.81-5.68,4.46-3.25" transform="translate(-5.65 -13.68)"/><polyline class="cls-4" points="109.38 138.83 113.23 137.82 114.25 140.86"/><path class="cls-20" d="M97.39,164.27c.61,0,32.25,9.94,32.25,9.94l.6,9.33L96.58,173.4Z" transform="translate(-5.65 -13.68)"/><path class="cls-20" d="M103.27,209.09s37.72,16.43,48.07,17.44,57.19-47.65,57.19-47.65l-5.48-7.1s-38.33,19.67-43,21.29-43.4-10.75-46.24-11.35-9.13.4-11.56,3.65" transform="translate(-5.65 -13.68)"/><line class="cls-4" x1="109.79" y1="200.69" x2="94.98" y2="201.9"/><line class="cls-4" x1="192.73" y1="161.55" x2="198.82" y2="169.05"/><path class="cls-8" d="M203.05,171.78l5.68-7.91,2.43-7.3c.41-1.22,4.26-3.85,5.48-5.48s2.43-5.27,3.65-4.26,1,3.25.61,4.26-2.44,3.25-2.64,4.26,12.17-2.23,12.17-2.23,2,.61,1.42,2.23a23.46,23.46,0,0,1-2.64,4.26s-2.43,7.71-4.26,9.53-10.34,4.26-10.34,4.26l-6.08,5.48Z" transform="translate(-5.65 -13.68)"/></g></svg>