<svg xmlns="http://www.w3.org/2000/svg" viewBox="0 0 500 500"><defs><style>.cls-1{isolation:isolate;}.cls-11,.cls-12,.cls-13,.cls-2{fill:#fff;}.cls-3,.cls-6{fill:#2f2f31;}.cls-3{opacity:0.2;}.cls-4,.cls-9{fill:none;}.cls-4{stroke:#ffc655;stroke-linecap:round;stroke-linejoin:round;stroke-width:2px;stroke-dasharray:6 6;}.cls-5{fill:#2ab99b;}.cls-7{fill:#ffc655;}.cls-8{fill:#eaeaea;mix-blend-mode:multiply;}.cls-9{stroke:#2f2f31;stroke-miterlimit:10;stroke-width:1.5px;}.cls-10{fill:#ccc;}.cls-11{font-size:84.24px;letter-spacing:0.05em;}.cls-11,.cls-12,.cls-13{font-family:Montserrat-Bold, Montserrat;font-weight:700;}.cls-12{font-size:36.89px;letter-spacing:0.05em;}.cls-13{font-size:23.6px;}</style></defs><g class="cls-1"><g id="BACKGROUND"><rect id="BACKGROUND-2" data-name="BACKGROUND" class="cls-2" width="500" height="500"/></g><g id="OBJECTS"><circle class="cls-3" cx="250" cy="250" r="182.49"/><circle class="cls-4" cx="99.47" cy="201.91" r="75.46" transform="translate(-113.64 129.47) rotate(-45)"/><circle class="cls-4" cx="387.45" cy="329.22" r="88.55"/><path class="cls-5" d="M372,144.21V348.82a12.78,12.78,0,0,1-12.79,12.77H135.32a12.78,12.78,0,0,1-12.79-12.77V144.21a12.78,12.78,0,0,1,12.79-12.79h223.9A12.78,12.78,0,0,1,372,144.21Z"/><path class="cls-6" d="M122.53,149.72V353.61a8,8,0,0,0,8,8H364a8,8,0,0,0,8-8V149.72Z"/><path class="cls-7" d="M140.42,141.72A2.43,2.43,0,1,1,138,139.3,2.42,2.42,0,0,1,140.42,141.72Z"/><path class="cls-7" d="M155.51,141.72a2.43,2.43,0,1,1-2.42-2.42A2.42,2.42,0,0,1,155.51,141.72Z"/><path class="cls-7" d="M170.61,141.72a2.43,2.43,0,1,1-2.43-2.42A2.43,2.43,0,0,1,170.61,141.72Z"/><path class="cls-7" d="M185.7,141.72a2.43,2.43,0,1,1-2.43-2.42A2.43,2.43,0,0,1,185.7,141.72Z"/><path class="cls-7" d="M356.57,141.72l2.28-2.22a.42.42,0,0,0,0-.55.35.35,0,0,0-.51,0L356,141.2l-2.35-2.28a.33.33,0,0,0-.5,0,.41.41,0,0,0,0,.55l2.28,2.22-2.28,2.22a.41.41,0,0,0,0,.55.34.34,0,0,0,.5,0l2.35-2.28,2.34,2.28a.38.38,0,0,0,.24.09.34.34,0,0,0,.27-.13.43.43,0,0,0,0-.55Z"/><rect class="cls-8" x="90.65" y="102.68" width="81.18" height="77.72" rx="10.59"/><rect class="cls-8" x="351.3" y="204.33" width="93.45" height="89.47" rx="10.59"/><rect class="cls-8" x="294.65" y="305.64" width="93.45" height="89.47" rx="10.59"/><rect class="cls-8" x="107.49" y="321.82" width="93.45" height="89.47" rx="10.59"/><rect class="cls-8" x="46.28" y="221.96" width="88.47" height="84.7" rx="10.59"/><rect class="cls-8" x="294.32" y="73.86" width="93.45" height="89.47" rx="10.59"/><path class="cls-9" d="M445.76,154.55H434.29a40.78,40.78,0,0,0-2.81-6.54l7.9-8.32a7.64,7.64,0,0,0-.28-10.8l-6.79-6.44a7.64,7.64,0,0,0-10.8.28l-7.9,8.33a38.23,38.23,0,0,0-4.69-1.88V117.71a7.64,7.64,0,0,0-7.64-7.64h-9.36a7.63,7.63,0,0,0-7.63,7.64v11.47a37.74,37.74,0,0,0-4.7,1.88l-7.9-8.33a7.64,7.64,0,0,0-10.8-.28l-6.78,6.44a7.64,7.64,0,0,0-.29,10.8l7.9,8.32a39.86,39.86,0,0,0-2.8,6.54H347.44a7.64,7.64,0,0,0-7.64,7.64v9.35a7.64,7.64,0,0,0,7.64,7.64h11.48a39.13,39.13,0,0,0,2.8,6.54l-7.9,8.33a7.63,7.63,0,0,0,.29,10.79l6.78,6.45a7.64,7.64,0,0,0,10.8-.29l7.9-8.32a39.31,39.31,0,0,0,4.7,1.87V216a7.63,7.63,0,0,0,7.63,7.64h9.36a7.64,7.64,0,0,0,7.64-7.64V204.55a39.84,39.84,0,0,0,4.69-1.87l7.9,8.32a7.64,7.64,0,0,0,10.8.29l6.79-6.45a7.63,7.63,0,0,0,.28-10.79l-7.9-8.33a40,40,0,0,0,2.81-6.54h11.47a7.64,7.64,0,0,0,7.64-7.64v-9.35A7.64,7.64,0,0,0,445.76,154.55ZM396.6,192.3A25.43,25.43,0,1,1,422,166.87,25.46,25.46,0,0,1,396.6,192.3Z"/><path class="cls-6" d="M152.25,319.27H140.77a39.17,39.17,0,0,0-2.81-6.54l7.9-8.33a7.62,7.62,0,0,0-.28-10.79l-6.79-6.45a7.63,7.63,0,0,0-10.79.29l-7.9,8.32a40.69,40.69,0,0,0-4.7-1.87V282.42a7.64,7.64,0,0,0-7.64-7.64H98.41a7.64,7.64,0,0,0-7.64,7.64V293.9a40.69,40.69,0,0,0-4.7,1.87l-7.9-8.32a7.64,7.64,0,0,0-10.8-.29l-6.78,6.45a7.62,7.62,0,0,0-.28,10.79l7.9,8.33a38.36,38.36,0,0,0-2.81,6.54H53.92a7.64,7.64,0,0,0-7.64,7.63v9.36a7.64,7.64,0,0,0,7.64,7.64H65.4a39.06,39.06,0,0,0,2.81,6.54l-7.9,8.32a7.63,7.63,0,0,0,.28,10.8L67.37,376a7.64,7.64,0,0,0,10.8-.28l7.9-8.33a39,39,0,0,0,4.7,1.88v11.47a7.64,7.64,0,0,0,7.64,7.64h9.35a7.64,7.64,0,0,0,7.64-7.64V369.27a38.23,38.23,0,0,0,4.69-1.88l7.91,8.33a7.63,7.63,0,0,0,10.79.28l6.79-6.44a7.63,7.63,0,0,0,.28-10.8l-7.9-8.32a39.9,39.9,0,0,0,2.81-6.54h11.48a7.64,7.64,0,0,0,7.63-7.64V326.9A7.64,7.64,0,0,0,152.25,319.27ZM103.08,357a25.43,25.43,0,1,1,25.44-25.43A25.46,25.46,0,0,1,103.08,357Z"/><rect class="cls-5" x="358.44" y="197.48" width="93.45" height="89.47" rx="10.59"/><path class="cls-2" d="M411.75,229.1l-4.29-.6a15.23,15.23,0,0,0-.7-2.59l3.38-2.69a2.89,2.89,0,0,0,.46-4.05l-2.2-2.76a2.89,2.89,0,0,0-4-.46l-3.38,2.7a14.2,14.2,0,0,0-1.66-.94l.6-4.29a2.88,2.88,0,0,0-2.45-3.25l-3.5-.49a2.88,2.88,0,0,0-3.25,2.46l-.6,4.28a16.13,16.13,0,0,0-1.85.46l-2.52-3.52a2.86,2.86,0,0,0-4-.67l-2.87,2.05a2.87,2.87,0,0,0-.67,4l2.52,3.52a14,14,0,0,0-1.39,2.29L375,224a2.88,2.88,0,0,0-3.25,2.45l-.49,3.49a2.89,2.89,0,0,0,2.46,3.26l4.28.59a15,15,0,0,0,.71,2.59l-3.38,2.7a2.88,2.88,0,0,0-.46,4.05l2.2,2.76a2.88,2.88,0,0,0,4,.45l3.39-2.69a16.72,16.72,0,0,0,1.65.94l-.59,4.29a2.88,2.88,0,0,0,2.45,3.25l3.49.49a2.89,2.89,0,0,0,3.26-2.46l.59-4.29a14.26,14.26,0,0,0,1.85-.45l2.52,3.52a2.89,2.89,0,0,0,4,.67l2.87-2.05a2.89,2.89,0,0,0,.67-4L404.79,240a15.28,15.28,0,0,0,1.39-2.3l4.29.6a2.88,2.88,0,0,0,3.25-2.45l.49-3.5A2.88,2.88,0,0,0,411.75,229.1Zm-20.33,11.54a9.59,9.59,0,1,1,10.83-8.18A9.61,9.61,0,0,1,391.42,240.64Z"/><path class="cls-2" d="M437.1,256.14l-3.39-.47a12.64,12.64,0,0,0-.56-2l2.68-2.14a2.29,2.29,0,0,0,.36-3.21l-1.74-2.19a2.3,2.3,0,0,0-3.21-.36l-2.68,2.14a11.35,11.35,0,0,0-1.31-.75l.47-3.4a2.28,2.28,0,0,0-1.94-2.57l-2.77-.39a2.29,2.29,0,0,0-2.58,1.95l-.47,3.39a12.12,12.12,0,0,0-1.47.36l-2-2.79a2.28,2.28,0,0,0-3.18-.53L411,244.76a2.27,2.27,0,0,0-.53,3.18l2,2.79a11.59,11.59,0,0,0-1.1,1.82l-3.4-.47a2.28,2.28,0,0,0-2.57,1.95l-.39,2.76a2.29,2.29,0,0,0,1.95,2.58l3.39.47a12.76,12.76,0,0,0,.56,2.06L408.26,264a2.29,2.29,0,0,0-.36,3.21l1.74,2.19a2.29,2.29,0,0,0,3.21.36l2.68-2.14a11.35,11.35,0,0,0,1.31.75l-.47,3.4a2.27,2.27,0,0,0,1.94,2.57l2.77.39a2.29,2.29,0,0,0,2.58-1.94l.47-3.4a12.12,12.12,0,0,0,1.47-.36l2,2.79a2.3,2.3,0,0,0,3.19.53l2.27-1.63a2.27,2.27,0,0,0,.53-3.18l-2-2.79a11.59,11.59,0,0,0,1.1-1.82l3.4.47a2.27,2.27,0,0,0,2.57-1.94l.39-2.77A2.29,2.29,0,0,0,437.1,256.14ZM421,265.28a7.6,7.6,0,1,1,8.58-6.47A7.6,7.6,0,0,1,421,265.28Z"/><rect class="cls-5" x="302.93" y="314.43" width="93.45" height="89.47" rx="10.59"/><circle class="cls-6" cx="349.43" cy="347.2" r="8.05" transform="translate(-46.93 639.68) rotate(-81.24)"/><path class="cls-6" d="M356.27,354.23a9.83,9.83,0,0,1-13.68,0,12.55,12.55,0,0,0-6.36,10.82v7.11h26.39v-7.11A12.56,12.56,0,0,0,356.27,354.23Z"/><circle class="cls-6" cx="377.9" cy="354.22" r="8.05" transform="translate(-120.33 212.63) rotate(-27.28)"/><path class="cls-6" d="M384.74,361.25a9.8,9.8,0,0,1-13.68,0,12.56,12.56,0,0,0-6.35,10.82v7.11H391.1v-7.11A12.55,12.55,0,0,0,384.74,361.25Z"/><circle class="cls-6" cx="321.42" cy="354.22" r="8.05" transform="translate(-96.98 586) rotate(-76.76)"/><path class="cls-6" d="M328.26,361.25a9.8,9.8,0,0,1-13.68,0,12.57,12.57,0,0,0-6.36,10.82v7.11h26.39v-7.11A12.56,12.56,0,0,0,328.26,361.25Z"/><rect class="cls-5" x="303.15" y="67.65" width="93.45" height="89.47" rx="10.59"/><path class="cls-2" d="M373.31,93.8c-.39-.5-.81-1-1.22-1.46a29.93,29.93,0,0,0-44.44,0c-.42.48-.82,1-1.21,1.46a29.86,29.86,0,0,0,.51,37.82c.41.49.84,1,1.29,1.42a29.85,29.85,0,0,0,43.26,0,19.07,19.07,0,0,0,1.28-1.42,29.82,29.82,0,0,0,.53-37.82Zm-2.12,36.77c-.41.49-.86,1-1.31,1.43a27.85,27.85,0,0,1-13.41,7.63,26.35,26.35,0,0,1-5.66.77c-.31,0-.63,0-.94,0s-.63,0-.95,0a26.89,26.89,0,0,1-5.64-.76A28,28,0,0,1,329.86,132c-.46-.46-.89-.94-1.3-1.44a27.66,27.66,0,0,1-6.7-17.23c0-.31,0-.63,0-.94s0-.63,0-1A27.8,27.8,0,0,1,328,94.87c.39-.49.81-1,1.25-1.45a28.12,28.12,0,0,1,14-8.29,26.89,26.89,0,0,1,5.64-.75c.32,0,.63,0,.95,0s.63,0,.94,0a25.74,25.74,0,0,1,5.66.77,28,28,0,0,1,14,8.26c.43.47.84,1,1.25,1.46a27.8,27.8,0,0,1,6.14,16.57c0,.32,0,.63,0,1s0,.63,0,.94A27.8,27.8,0,0,1,371.19,130.57Z"/><path class="cls-2" d="M365.54,111.44a52.21,52.21,0,0,0-1.64-12.59c-.15-.63-.32-1.25-.51-1.84-1.6-5.21-4-9.35-6.92-11.86a9.45,9.45,0,0,0-13.19,0C340.37,87.64,338,91.8,336.37,97c-.19.59-.37,1.21-.53,1.84a52.72,52.72,0,0,0-1.63,12.59c0,.32,0,.63,0,1s0,.63,0,.94a52.56,52.56,0,0,0,1.88,13.53c.18.62.36,1.23.57,1.81,1.59,4.79,3.88,8.6,6.62,11a9.44,9.44,0,0,0,13.19,0c2.74-2.36,5-6.17,6.63-10.95.19-.59.38-1.2.56-1.82a53.44,53.44,0,0,0,1.88-13.53c0-.31,0-.63,0-.94S365.55,111.76,365.54,111.44Zm-3.69,14.82c-.17.61-.36,1.22-.55,1.81-2.32,7-6.13,11.69-10.49,12.28a6,6,0,0,1-.94.08,6.09,6.09,0,0,1-.95-.08c-4.35-.59-8.16-5.34-10.47-12.29-.19-.59-.38-1.2-.56-1.82a51.59,51.59,0,0,1-1.79-12.91c0-.31,0-.63,0-.94s0-.63,0-1a51.71,51.71,0,0,1,1.54-12c.17-.63.34-1.24.52-1.83,2.27-7.46,6.22-12.59,10.76-13.21a6.09,6.09,0,0,1,.95-.08,6,6,0,0,1,.94.08c4.56.62,8.51,5.75,10.78,13.21.19.59.35,1.2.5,1.83a51.14,51.14,0,0,1,1.56,12c0,.32,0,.63,0,1s0,.63,0,.94A51.41,51.41,0,0,1,361.85,126.26Z"/><path class="cls-2" d="M372.09,92.34c-.52.38-1,.74-1.59,1.07a37.08,37.08,0,0,1-7.11,3.6c-.59.22-1.19.44-1.8.63a37,37,0,0,1-10.78,1.81c-.31,0-.63,0-.94,0s-.63,0-.95,0a36.88,36.88,0,0,1-10.76-1.81c-.61-.19-1.2-.39-1.79-.63a36.84,36.84,0,0,1-7.12-3.59c-.54-.34-1.07-.69-1.6-1.08-.42.48-.82,1-1.21,1.46.51.38,1,.73,1.56,1.07a40.12,40.12,0,0,0,7.84,4c.59.21,1.2.43,1.8.62a39.72,39.72,0,0,0,11.28,1.89h1.89a39.66,39.66,0,0,0,11.28-1.89c.61-.19,1.22-.41,1.81-.62a41.34,41.34,0,0,0,7.85-4c.53-.34,1-.7,1.56-1.07C372.92,93.3,372.5,92.82,372.09,92.34Z"/><path class="cls-2" d="M371.19,130.57a40.84,40.84,0,0,0-7.53-3.71c-.59-.21-1.2-.42-1.81-.6a39.8,39.8,0,0,0-11-1.82h-1.89a40.6,40.6,0,0,0-11,1.8l-1.8.62a40.18,40.18,0,0,0-7.53,3.7c-.55.34-1.08.69-1.61,1.06.41.49.84,1,1.29,1.42.53-.36,1.06-.72,1.62-1a37,37,0,0,1,6.8-3.33c.59-.22,1.18-.42,1.79-.61a37.43,37.43,0,0,1,10.47-1.72c.32,0,.63,0,.95,0s.63,0,.94,0a37.89,37.89,0,0,1,10.49,1.73c.61.18,1.21.39,1.8.61a36.74,36.74,0,0,1,6.78,3.32c.56.32,1.09.68,1.62,1a19.07,19.07,0,0,0,1.28-1.42Q372,131.08,371.19,130.57Z"/><rect class="cls-2" x="320.88" y="111.44" width="57.97" height="1.89"/><rect class="cls-2" x="348.93" y="83.4" width="1.89" height="57.97"/><rect class="cls-5" x="42.46" y="218.66" width="86.06" height="82.39" rx="10.59"/><rect class="cls-2" x="51.35" y="225.35" width="33.07" height="5.87"/><rect class="cls-7" x="98.53" y="225.35" width="5.73" height="5.87"/><rect class="cls-7" x="106.21" y="225.35" width="5.73" height="5.87"/><rect class="cls-7" x="113.89" y="225.35" width="5.73" height="5.87"/><rect class="cls-5" x="85.21" y="97.25" width="81.18" height="77.72" rx="10.59"/><path class="cls-7" d="M95.11,159.93v4.91c0,1.1,8.31,2,18.57,2s18.57-.89,18.57-2v-4.91Z"/><path class="cls-10" d="M132.25,159.93c0,1.1-8.32,2-18.57,2s-18.57-.89-18.57-2,8.31-2,18.57-2S132.25,158.83,132.25,159.93Z"/><path class="cls-2" d="M95.11,155.08V160c0,1.1,8.31,2,18.57,2s18.57-.89,18.57-2v-4.91Z"/><ellipse class="cls-10" cx="113.68" cy="155.08" rx="18.57" ry="1.99"/><path class="cls-7" d="M95.11,150.23v4.91c0,1.1,8.31,2,18.57,2s18.57-.89,18.57-2v-4.91Z"/><path class="cls-10" d="M132.25,150.23c0,1.1-8.32,2-18.57,2s-18.57-.89-18.57-2,8.31-2,18.57-2S132.25,149.13,132.25,150.23Z"/><path class="cls-7" d="M95.11,140.53v4.91c0,1.1,8.31,2,18.57,2s18.57-.89,18.57-2v-4.91Z"/><path class="cls-10" d="M132.25,140.53c0,1.1-8.32,2-18.57,2s-18.57-.89-18.57-2,8.31-2,18.57-2S132.25,139.43,132.25,140.53Z"/><path class="cls-2" d="M95.11,145.38v4.91c0,1.1,8.31,2,18.57,2s18.57-.89,18.57-2v-4.91Z"/><path class="cls-7" d="M132.25,145.38c0,1.1-8.32,2-18.57,2s-18.57-.89-18.57-2,8.31-2,18.57-2S132.25,144.28,132.25,145.38Z"/><path class="cls-2" d="M95.11,135.68v4.91c0,1.1,8.31,2,18.57,2s18.57-.89,18.57-2v-4.91Z"/><path class="cls-7" d="M132.25,135.68c0,1.1-8.32,2-18.57,2s-18.57-.89-18.57-2,8.31-2,18.57-2S132.25,134.58,132.25,135.68Z"/><circle class="cls-7" cx="137.43" cy="124.44" r="19.06" transform="translate(-15.05 229.89) rotate(-76.83)"/><path class="cls-2" d="M137.43,141.2a16.77,16.77,0,1,1,16.76-16.76A16.78,16.78,0,0,1,137.43,141.2Zm0-32.09a15.33,15.33,0,1,0,15.32,15.33A15.34,15.34,0,0,0,137.43,109.11Z"/><rect class="cls-5" x="99.75" y="328.3" width="93.45" height="89.47" rx="10.59"/><rect class="cls-6" x="133.06" y="372.17" width="6.28" height="21.24"/><rect class="cls-6" x="162.57" y="354.99" width="6.28" height="38.42"/><rect class="cls-6" x="142.92" y="378.5" width="6.28" height="14.9"/><rect class="cls-6" x="171.8" y="360.64" width="6.28" height="32.77"/><rect class="cls-6" x="124.87" y="378.5" width="5.34" height="14.9"/><rect class="cls-6" x="152.53" y="362.39" width="6.28" height="31.02"/><path class="cls-6" d="M119.39,403.46a.4.4,0,0,1-.39-.39V343a.39.39,0,0,1,.39-.39.38.38,0,0,1,.39.39v60.06A.39.39,0,0,1,119.39,403.46Z"/><path class="cls-6" d="M174.94,399.23H114.88a.39.39,0,0,1-.39-.39.38.38,0,0,1,.39-.39h60.06a.39.39,0,0,1,.39.39A.4.4,0,0,1,174.94,399.23Z"/><path class="cls-6" d="M126.3,368.68a.39.39,0,0,1-.29-.13.38.38,0,0,1,0-.55l9.89-8.79a.38.38,0,0,1,.5,0l9.07,7.34L165.42,344a.37.37,0,0,1,.28-.13.42.42,0,0,1,.28.1l10,9.46a.39.39,0,1,1-.53.56l-9.74-9.17-19.89,22.48a.38.38,0,0,1-.54,0l-9.1-7.37-9.65,8.57A.35.35,0,0,1,126.3,368.68Z"/><path class="cls-6" d="M435.52,312.72H419.33a.68.68,0,1,1,0-1.35h16.19a.68.68,0,1,1,0,1.35Z"/><path class="cls-6" d="M410,312.72H397.89a.68.68,0,0,1,0-1.35H410a.68.68,0,0,1,0,1.35Z"/><path class="cls-6" d="M413.58,302.92h-26.9a.68.68,0,1,1,0-1.35h26.9a.68.68,0,1,1,0,1.35Z"/><path class="cls-6" d="M113.32,192.39H94.93a.68.68,0,1,1,0-1.35h18.39a.68.68,0,0,1,0,1.35Z"/><path class="cls-6" d="M85.76,192.39H67.88a.68.68,0,0,1,0-1.35H85.76a.68.68,0,1,1,0,1.35Z"/><path class="cls-6" d="M116.08,200.23H85.34a.68.68,0,1,1,0-1.35h30.74a.68.68,0,1,1,0,1.35Z"/><path class="cls-6" d="M323.32,424.94h-24.5a.68.68,0,1,1,0-1.35h24.5a.68.68,0,0,1,0,1.35Z"/><path class="cls-6" d="M339.17,415.25h-36a.68.68,0,0,1,0-1.36h36a.68.68,0,0,1,0,1.36Z"/><path class="cls-6" d="M296.66,415.25H283.12a.68.68,0,1,1,0-1.36h13.54a.68.68,0,0,1,0,1.36Z"/><path class="cls-6" d="M197.94,91H164a.68.68,0,1,1,0-1.36h33.92a.68.68,0,1,1,0,1.36Z"/><path class="cls-6" d="M210.7,100.42H181.45a.68.68,0,1,1,0-1.35H210.7a.68.68,0,1,1,0,1.35Z"/><rect class="cls-8" x="249.21" y="118.58" width="81.68" height="78.2" rx="10.59"/><rect class="cls-5" x="243.9" y="113.7" width="81.68" height="78.2" rx="10.59"/><path class="cls-6" d="M303.2,170.34a26,26,0,1,1-12.74-42.52l-8.93,26.37,28.25.37A27.34,27.34,0,0,1,303.2,170.34Z"/><path class="cls-7" d="M286.58,151.47l26.39.17a26.77,26.77,0,0,0-8.74-19.8,26.19,26.19,0,0,0-9.23-5.39Z"/><rect class="cls-8" x="165.71" y="350.86" width="88.89" height="85.1" rx="10.59"/><rect class="cls-5" x="173.94" y="358.31" width="86.06" height="82.39" rx="10.59"/><path class="cls-2" d="M240.1,385.88l-43.42-7.21h-.19a1.29,1.29,0,0,0-.39,0H196l-6.33,2.08a1.36,1.36,0,0,0,.42,2.66,1.29,1.29,0,0,0,.43-.07l5.07-1.67,9.72,26.8h0c-.37.35-3.6,3.43-3.6,6.3a1.36,1.36,0,0,0,1.36,1.36h32.68a1.36,1.36,0,1,0,0-2.72H204.87a12.2,12.2,0,0,1,2.3-2.94,1.32,1.32,0,0,0,.38-.74h30.71a1.37,1.37,0,0,0,1.36-1.26l1.62-21.2A1.37,1.37,0,0,0,240.1,385.88Zm-2.2,9.44h-10v-8.7l10.53,1.75Zm-22.81,0V384.49l11.45,1.9v8.93Zm11.45,1.37v10.38H215.09V396.69Zm-12.81-12.42v11.05H203.46l-4.93-13.58ZM204,396.69h9.78v10.38h-6Zm24,10.38V396.69h9.89L237,407.07Z"/><path class="cls-2" d="M205.71,417.7a3.46,3.46,0,1,0,3.46,3.46A3.46,3.46,0,0,0,205.71,417.7Z"/><path class="cls-2" d="M232.3,417.7a3.46,3.46,0,1,0,3.46,3.46A3.46,3.46,0,0,0,232.3,417.7Z"/><path class="cls-6" d="M412.56,416.61l-5.24-2.48a19.64,19.64,0,0,0,.13-3.59l5.41-2.09a3.87,3.87,0,0,0,2.21-5L413.36,399a3.86,3.86,0,0,0-5-2.2L403,398.93a19.17,19.17,0,0,0-1.74-1.87l2.48-5.24a3.85,3.85,0,0,0-1.83-5.14l-4.27-2a3.86,3.86,0,0,0-5.14,1.84L390,391.73a19.84,19.84,0,0,0-2.55-.16l-1.8-5.51a3.87,3.87,0,0,0-4.87-2.47l-4.5,1.48a3.85,3.85,0,0,0-2.46,4.87l1.81,5.51a19,19,0,0,0-2.7,2.38l-5.24-2.48a3.85,3.85,0,0,0-5.14,1.83l-2,4.27a3.86,3.86,0,0,0,1.84,5.14l5.24,2.49a19.64,19.64,0,0,0-.13,3.59L362,414.76a3.87,3.87,0,0,0-2.21,5l1.71,4.41a3.86,3.86,0,0,0,5,2.2l5.41-2.09a20.49,20.49,0,0,0,1.74,1.87l-2.48,5.24a3.85,3.85,0,0,0,1.83,5.14l4.28,2a3.86,3.86,0,0,0,5.14-1.84l2.48-5.24a19.84,19.84,0,0,0,2.55.16l1.81,5.51a3.85,3.85,0,0,0,4.87,2.46l4.49-1.47a3.85,3.85,0,0,0,2.46-4.87l-1.81-5.51a19,19,0,0,0,2.7-2.38l5.24,2.48a3.85,3.85,0,0,0,5.14-1.83l2-4.27A3.87,3.87,0,0,0,412.56,416.61Zm-30.62,6.61a12.85,12.85,0,1,1,17.12-6.11A12.87,12.87,0,0,1,381.94,423.22Z"/><path class="cls-6" d="M97.71,122.67l-4.54-2.37a17.87,17.87,0,0,0,.23-3.17l4.85-1.67a3.4,3.4,0,0,0,2.11-4.33L99,107.18a3.41,3.41,0,0,0-4.33-2.12l-4.85,1.67A17,17,0,0,0,88.35,105l2.37-4.54a3.41,3.41,0,0,0-1.45-4.6L85.56,94A3.41,3.41,0,0,0,81,95.4l-2.37,4.54a16.82,16.82,0,0,0-2.24-.22l-1.41-4.93a3.41,3.41,0,0,0-4.22-2.34l-4,1.15a3.41,3.41,0,0,0-2.34,4.22l1.42,4.93a16.87,16.87,0,0,0-2.46,2l-4.55-2.37a3.41,3.41,0,0,0-4.6,1.45l-1.93,3.71a3.41,3.41,0,0,0,1.45,4.6l4.55,2.36a17,17,0,0,0-.24,3.17l-4.84,1.67A3.41,3.41,0,0,0,51,123.69l1.36,4a3.41,3.41,0,0,0,4.33,2.11l4.85-1.67a17,17,0,0,0,1.47,1.71l-2.36,4.55a3.41,3.41,0,0,0,1.45,4.6l3.7,1.93a3.41,3.41,0,0,0,4.6-1.45l2.37-4.55a17.18,17.18,0,0,0,2.24.23L76.47,140a3.41,3.41,0,0,0,4.22,2.34l4-1.15A3.41,3.41,0,0,0,87,137l-1.41-4.92a18.78,18.78,0,0,0,2.46-2l4.54,2.36a3.41,3.41,0,0,0,4.6-1.45l1.93-3.7A3.41,3.41,0,0,0,97.71,122.67Zm-27.25,4.81a11.36,11.36,0,1,1,15.31-4.83A11.37,11.37,0,0,1,70.46,127.48Z"/><path class="cls-6" d="M127.76,85.33l-3.9-2a14.72,14.72,0,0,0,.2-2.72l4.16-1.43A2.94,2.94,0,0,0,130,75.43L128.86,72a2.93,2.93,0,0,0-3.71-1.81L121,71.66a17.47,17.47,0,0,0-1.26-1.47l2-3.89a2.93,2.93,0,0,0-1.25-3.95l-3.17-1.65a2.93,2.93,0,0,0-4,1.24l-2,3.9a13.87,13.87,0,0,0-1.92-.19l-1.22-4.23a2.91,2.91,0,0,0-3.61-2l-3.45,1a2.93,2.93,0,0,0-2,3.62l1.21,4.23A14.42,14.42,0,0,0,98.26,70l-3.9-2a2.92,2.92,0,0,0-3.94,1.24l-1.66,3.18a2.93,2.93,0,0,0,1.25,4l3.89,2a16.48,16.48,0,0,0-.2,2.71l-4.15,1.43a2.93,2.93,0,0,0-1.82,3.72l1.17,3.39a2.92,2.92,0,0,0,3.72,1.81L96.77,90A17.47,17.47,0,0,0,98,91.44l-2,3.9a2.92,2.92,0,0,0,1.24,3.94l3.18,1.65a2.92,2.92,0,0,0,3.94-1.24l2-3.9a15.58,15.58,0,0,0,1.93.2l1.21,4.22a2.93,2.93,0,0,0,3.62,2l3.44-1a2.93,2.93,0,0,0,2-3.62l-1.21-4.22a15.17,15.17,0,0,0,2.11-1.73l3.9,2a2.92,2.92,0,0,0,3.94-1.24L129,89.27A2.92,2.92,0,0,0,127.76,85.33Zm-23.38,4.12a9.74,9.74,0,1,1,13.14-4.14A9.75,9.75,0,0,1,104.38,89.45Z"/><circle class="cls-6" cx="247.25" cy="99.96" r="5.65"/><path class="cls-6" d="M261,92.27a1.49,1.49,0,0,1-1.31-.86,13.53,13.53,0,0,0-24.84,0,1.42,1.42,0,0,1-2,.65,1.81,1.81,0,0,1-.57-2.3c3.05-6.1,8.81-9.89,15-9.89s12,3.79,15,9.89a1.82,1.82,0,0,1-.57,2.3A1.46,1.46,0,0,1,261,92.27Z"/><path class="cls-6" d="M226.24,86.84a1.4,1.4,0,0,1-.73-.21,1.81,1.81,0,0,1-.57-2.3c4.53-9,13.08-14.68,22.31-14.68S265,75.28,269.57,84.33a1.82,1.82,0,0,1-.57,2.3A1.43,1.43,0,0,1,267,86c-4-8-11.54-13-19.7-13s-15.7,5-19.7,13A1.48,1.48,0,0,1,226.24,86.84Z"/><path class="cls-6" d="M273.49,79.93a1.49,1.49,0,0,1-1.31-.86c-5.06-10.11-14.61-16.4-24.93-16.4S227.38,69,222.32,79.07a1.41,1.41,0,0,1-2,.65,1.81,1.81,0,0,1-.57-2.3c5.59-11.18,16.14-18.12,27.54-18.12s22,6.94,27.55,18.12a1.81,1.81,0,0,1-.58,2.3A1.4,1.4,0,0,1,273.49,79.93Z"/></g><g id="TEXTS"><text class="cls-11" transform="translate(150.8 275.08) rotate(0.05)">ERP</text><text class="cls-12" transform="translate(53.29 276.68) rotate(0.05)">&lt;/&gt;</text><text class="cls-13" transform="translate(129.92 132.6) rotate(0.05)">$</text></g></g></svg>